HIERARCHY
ROOT root
{
	OFFSET 0.000000 0.000000 0.000000
	CHANNELS 6 Xposition Yposition Zposition Zrotation Yrotation Xrotation
	JOINT lhip
	{
		OFFSET 0.058581 -0.082280 -0.017664
		CHANNELS 3 Zrotation Yrotation Xrotation
		JOINT lknee
		{
			OFFSET 0.043451 -0.386469 0.008037
			CHANNELS 3 Zrotation Yrotation Xrotation
			JOINT lankle
			{
				OFFSET -0.014790 -0.426874 -0.037428
				CHANNELS 3 Zrotation Yrotation Xrotation
				JOINT ltoe
				{
					OFFSET 0.041054 -0.060286 0.122042
					CHANNELS 3 Zrotation Yrotation Xrotation
					End Site
					{
						OFFSET 0.000000 0.000000 0.000000
					}
				}
			}
		}
	}
	JOINT rhip
	{
		OFFSET -0.060310 -0.090513 -0.013543
		CHANNELS 3 Zrotation Yrotation Xrotation
		JOINT rknee
		{
			OFFSET -0.043257 -0.383688 -0.004843
			CHANNELS 3 Zrotation Yrotation Xrotation
			JOINT rankle
			{
				OFFSET 0.019056 -0.420046 -0.034562
				CHANNELS 3 Zrotation Yrotation Xrotation
				JOINT rtoe
				{
					OFFSET -0.034840 -0.062106 0.130323
					CHANNELS 3 Zrotation Yrotation Xrotation
					End Site
					{
						OFFSET 0.000000 0.000000 0.000000
					}
				}
			}
		}
	}
	JOINT lowerback
	{
		OFFSET 0.004439 0.124404 -0.038385
		CHANNELS 3 Zrotation Yrotation Xrotation
		JOINT upperback
		{
			OFFSET 0.004488 0.137956 0.026820
			CHANNELS 3 Zrotation Yrotation Xrotation
			JOINT chest
			{
				OFFSET -0.002265 0.056032 0.002855
				CHANNELS 3 Zrotation Yrotation Xrotation
				JOINT lowerneck
				{
					OFFSET -0.013390 0.211636 -0.033468
					CHANNELS 3 Zrotation Yrotation Xrotation
					JOINT upperneck
					{
						OFFSET 0.010113 0.088937 0.050410
						CHANNELS 3 Zrotation Yrotation Xrotation
						End Site
						{
							OFFSET 0.000000 0.000000 0.000000
						}
					}
				}
				JOINT lclavicle
				{
					OFFSET 0.071702 0.114000 -0.018898
					CHANNELS 3 Zrotation Yrotation Xrotation
					JOINT lshoulder
					{
						OFFSET 0.122921 0.045205 -0.019046
						CHANNELS 3 Zrotation Yrotation Xrotation
						JOINT lelbow
						{
							OFFSET 0.255332 -0.015649 -0.022946
							CHANNELS 3 Zrotation Yrotation Xrotation
							JOINT lwrist
							{
								OFFSET 0.265709 0.012698 -0.007375
								CHANNELS 3 Zrotation Yrotation Xrotation
								End Site
								{
									OFFSET 0.000000 0.000000 0.000000
								}
							}
						}
					}
				}
				JOINT rclavicle
				{
					OFFSET -0.082954 0.112472 -0.023707
					CHANNELS 3 Zrotation Yrotation Xrotation
					JOINT rshoulder
					{
						OFFSET -0.113228 0.046853 -0.008472
						CHANNELS 3 Zrotation Yrotation Xrotation
						JOINT relbow
						{
							OFFSET -0.260127 -0.014369 -0.031269
							CHANNELS 3 Zrotation Yrotation Xrotation
							JOINT rwrist
							{
								OFFSET -0.269108 0.006794 -0.006027
								CHANNELS 3 Zrotation Yrotation Xrotation
								End Site
								{
									OFFSET 0.000000 0.000000 0.000000
								}
							}
						}
					}
				}
			}
		}
	}
}
MOTION
Frames: 16
Frame Time: 0.033333
0.959356 -0.000779 1.050468 12.215532 1.867760 100.817459 2.528220 -4.849367 -32.276783 -0.986098 -5.510240 7.519300 -1.783617 13.211261 10.621240 0.000000 -0.000000 0.000000 -5.852607 -10.167032 -29.848736 -6.977894 -14.739774 -1.112872 2.684287 -18.266312 43.156781 0.000000 -0.000000 0.000000 -1.023142 11.778335 4.531483 7.768211 4.395527 7.134085 3.111151 7.778982 -11.713521 3.905160 -14.902436 -0.736127 12.656506 -18.019387 -4.088932 -13.902397 -12.308171 -7.941915 -4.198825 -29.474918 -2.986856 6.506773 -22.901248 -7.372653 -7.948256 2.976964 16.381468 25.070784 25.981893 1.965435 25.012454 37.578500 -7.281598 3.657916 -7.304769 -29.660537 1.006782 -10.468631 11.701072 
0.987210 -0.033652 1.013551 -0.651388 2.245107 100.333438 2.752408 -3.017754 -34.249909 -3.535053 -2.509897 18.453786 3.936350 17.624046 -6.930952 0.000000 -0.000000 0.000000 -8.421598 -12.230936 -26.872494 -9.069461 -15.899159 -1.891892 0.138983 -19.249895 41.224821 0.000000 -0.000000 0.000000 -1.538976 12.899849 1.721037 8.014409 4.808271 8.344524 2.394546 8.008625 -11.454460 4.463393 -12.782023 1.292478 10.865222 -16.923008 -4.919078 -15.612909 -8.166413 -8.062010 -8.258325 -28.641966 -1.912530 7.176581 -25.007542 -3.357588 -16.434923 6.307742 19.747256 24.610202 22.183897 0.107411 32.079809 33.775195 -4.762562 2.818668 -6.711698 -28.012367 9.436994 -12.861872 7.089763 
1.010986 -0.058818 0.974055 -12.989805 2.314226 98.191259 2.182180 1.427624 -33.256402 -2.385988 4.319570 26.322822 5.063245 20.129172 -20.629372 0.000000 -0.000000 0.000000 -11.388531 -14.475756 -24.715921 -11.044559 -15.294338 -0.974132 -0.744792 -20.336597 38.052187 0.000000 -0.000000 0.000000 -0.357944 12.512955 3.858933 6.851826 5.718744 4.473192 1.164144 7.914298 -6.110982 7.711699 -9.295405 -2.168613 7.185002 -16.872297 -3.274988 -15.954738 -1.455033 -12.288737 -11.962935 -28.736889 0.007242 6.883189 -27.803011 1.520427 -22.028145 6.375354 18.749280 24.585276 17.136841 -6.008953 37.669582 31.810150 -0.183760 1.099019 -6.618613 -24.394976 11.133242 -13.925096 7.550219 
1.028817 -0.080091 0.951487 -21.961880 0.684913 98.823379 0.476260 2.907260 -34.369952 -3.818223 6.888374 30.099456 6.827392 26.173488 -25.656038 0.000000 -0.000000 0.000000 -14.860037 -18.073887 -24.091502 -12.358159 -15.567944 -0.662164 0.079057 -22.405447 37.735638 0.000000 -0.000000 0.000000 -2.821087 12.246575 3.026314 6.675968 4.528175 3.197091 0.958366 6.902662 -5.130433 7.524539 -8.561918 -3.590935 6.386560 -13.074160 -1.593445 -16.976068 2.825732 -11.183700 -13.045862 -25.902316 -1.200888 8.074866 -29.802128 -0.942193 -21.921121 6.182671 13.211266 26.278832 12.286756 -7.448162 36.621744 29.701517 -0.791543 -0.685201 -3.181315 -17.815465 8.883859 -13.671279 10.954610 
1.040275 -0.102704 0.948143 -29.809328 0.837899 99.971545 0.874415 2.563727 -35.655104 -2.347718 11.528295 33.962571 5.454446 29.561122 -28.619797 0.000000 -0.000000 0.000000 -16.267119 -17.871881 -21.533650 -13.033584 -16.338222 -0.374690 -0.288187 -22.647945 38.171161 0.000000 -0.000000 0.000000 -3.910724 11.885208 -0.094967 7.132242 3.041676 4.832293 0.951160 6.696073 -6.109379 6.534584 -9.238246 -1.921411 7.030007 -10.786586 -3.229665 -19.144387 3.697733 -9.672085 -12.321419 -21.541108 -1.476525 7.570222 -27.960457 -3.279689 -19.556834 3.669097 9.739678 27.776469 9.722526 -6.977214 30.405660 26.207916 -4.909610 -1.128200 0.482569 -13.124474 4.351173 -10.744400 16.077669 
1.049452 -0.118300 0.953554 -35.513020 2.362366 100.840196 1.003285 4.150640 -34.302807 -0.898270 13.964762 31.774511 5.875933 30.231657 -29.387657 0.000000 -0.000000 0.000000 -15.839864 -16.736045 -18.148451 -12.811873 -16.721894 1.172336 0.518614 -23.075477 37.231455 0.000000 -0.000000 0.000000 -2.370533 11.310977 -0.095631 6.692889 2.822219 3.782699 0.745644 7.031072 -6.607545 5.774111 -8.968398 -1.051895 6.479788 -10.414872 -4.616154 -19.049636 3.002562 -10.111206 -14.866114 -18.719369 1.426014 8.290645 -24.119561 -1.685341 -21.192145 4.651447 11.542548 25.794274 8.161032 -7.855040 25.521773 20.221614 -6.266026 -2.021270 3.471102 -11.516616 6.437577 -9.392403 16.335340 
1.061411 -0.129719 0.962215 -40.000541 3.740630 102.196701 -0.220932 4.995193 -33.517146 0.675657 13.596469 27.973009 7.667310 32.329288 -28.112362 0.000000 -0.000000 0.000000 -15.299016 -15.252137 -14.762969 -11.456619 -14.287005 2.666707 2.423589 -22.153514 39.242197 0.000000 -0.000000 0.000000 -0.322140 11.096670 -0.191916 6.161381 2.661258 2.893826 0.290695 6.877755 -6.381224 5.961872 -9.370229 -2.838198 4.786218 -9.203167 -4.267669 -18.885501 2.255318 -10.684402 -16.106033 -15.597285 2.921305 9.622818 -22.167543 -0.037238 -25.437309 4.895867 10.170916 22.234434 6.613688 -8.987460 21.162914 16.601334 -7.440008 -3.212157 2.657264 -10.560064 10.703246 -10.447485 14.544408 
1.067256 -0.137106 0.971982 -45.228942 5.312884 103.116522 0.319849 6.476301 -32.852400 1.410107 15.120747 25.477241 8.091461 34.002454 -26.755701 0.000000 -0.000000 0.000000 -13.590993 -13.660607 -11.910972 -10.698019 -10.766339 4.905072 4.174183 -21.578372 39.248588 0.000000 -0.000000 0.000000 -0.158170 11.545886 -0.774255 6.269124 2.812648 3.973167 0.252314 6.864247 -7.812544 6.878577 -8.922108 -3.779155 4.143810 -8.379006 -4.648439 -18.081004 2.684864 -11.409773 -15.380763 -14.144562 2.883755 8.688348 -19.264716 -0.638731 -27.632818 6.386346 9.867705 19.726084 5.211084 -9.557013 15.646435 15.379562 -7.507702 -3.994163 -1.709995 -7.670747 10.702249 -11.746839 16.432748 
1.070713 -0.140201 0.980576 -50.052352 6.483775 104.453312 1.615495 7.057618 -32.374500 1.015700 17.912440 22.448715 8.291670 35.407999 -25.349795 0.000000 -0.000000 0.000000 -11.500262 -11.535371 -9.632927 -10.418547 -7.396674 7.361288 3.256800 -21.493172 40.291849 0.000000 -0.000000 0.000000 -1.258446 11.734382 -1.470973 6.025061 3.036535 3.217903 0.716167 6.772558 -8.022022 8.347627 -7.749712 -4.263232 4.251853 -7.798909 -5.620267 -16.527902 2.461231 -12.741750 -13.110105 -11.606612 2.102602 8.395838 -16.671781 -1.119279 -28.713072 7.600917 9.640179 17.348553 5.096089 -10.350598 10.460765 14.618195 -8.966178 -5.119959 -7.669221 -3.044516 8.913246 -14.290971 22.602031 
1.073758 -0.140537 0.988285 -53.961621 7.038887 106.249820 1.628631 7.933252 -31.133007 0.025262 20.344958 16.229764 9.694130 35.697987 -22.684182 0.000000 -0.000000 0.000000 -9.658462 -9.912590 -7.370006 -9.910261 -5.005721 8.917657 4.553395 -20.729655 42.095680 0.000000 -0.000000 0.000000 -2.916397 11.492999 -1.897322 5.662948 2.914732 1.862530 0.750802 6.889033 -8.936317 9.582610 -7.152510 -4.042181 4.661531 -6.397603 -6.528259 -14.746331 3.379207 -13.418185 -9.529126 -10.383024 0.258338 8.040724 -14.258294 -0.992231 -28.668499 10.402305 13.432074 15.952041 3.768044 -10.173542 5.035279 15.187086 -10.666281 -7.117326 -11.614287 2.459182 7.570446 -17.995762 30.746964 
1.077972 -0.139239 0.993391 -57.919364 8.437779 107.343103 2.288861 10.151187 -30.300242 -1.394807 21.708447 11.600504 10.747307 36.666436 -21.033589 0.000000 -0.000000 0.000000 -7.118162 -9.428543 -4.339757 -9.142956 -3.305126 8.565019 6.300787 -20.342566 43.615700 0.000000 -0.000000 0.000000 -3.492534 11.497103 -2.462775 5.696348 2.790328 1.743557 0.966947 7.257485 -9.402936 10.334060 -5.595380 -4.807150 4.123251 -5.201332 -7.820069 -12.868582 4.535128 -14.608944 -6.049954 -9.337848 -1.368924 7.449560 -12.131560 0.209216 -28.469487 14.342339 17.835865 13.379845 2.156411 -10.859299 -0.822407 16.157923 -14.159844 -8.129751 -13.000582 5.784900 5.981774 -21.522157 37.606322 
1.083586 -0.136721 0.996554 -62.498167 9.806448 108.306480 3.083383 11.855319 -30.466247 -1.826507 23.572482 9.171443 11.079052 37.580626 -20.006608 0.000000 -0.000000 0.000000 -4.782233 -8.809811 -2.039908 -8.852809 -1.612259 8.152157 6.835566 -20.387107 43.332791 0.000000 -0.000000 0.000000 -3.924678 11.823776 -3.024739 5.377203 3.103231 0.897263 0.923324 7.552868 -9.695283 11.414468 -3.567157 -4.620234 3.786796 -4.805743 -8.598935 -9.266912 5.568252 -16.067824 -3.867826 -8.681780 -2.170263 7.800171 -9.059081 3.195498 -28.935657 16.314707 20.893996 10.199386 1.263018 -12.140106 -5.571879 16.355427 -16.782866 -8.821085 -12.573171 6.574314 6.798436 -22.125912 38.024851 
1.086104 -0.131963 0.998142 -66.354961 11.284351 108.674629 4.493712 13.509158 -30.669181 -2.060495 25.159617 8.137292 11.230342 38.658854 -19.309458 0.000000 -0.000000 0.000000 -1.689728 -8.570862 0.621555 -9.223768 0.470333 7.523916 6.665045 -20.677597 42.705138 0.000000 -0.000000 0.000000 -4.945718 11.783671 -3.571068 5.532679 2.918413 0.003057 1.384359 7.817935 -9.912527 12.317527 -2.268599 -3.918456 4.135384 -4.662252 -9.026858 -6.073299 6.230506 -17.176300 0.117928 -7.841819 -4.002748 7.345691 -6.831506 6.131348 -27.273878 18.545450 24.437744 7.500728 1.243195 -13.473993 -11.317033 17.028157 -20.992327 -8.545041 -12.339153 6.145457 5.645018 -22.476409 38.951244 
1.091312 -0.127153 0.998855 -68.817012 12.215959 108.832309 5.858444 13.498196 -31.971897 -1.112020 26.774627 9.652144 11.401933 39.905190 -18.664516 0.000000 -0.000000 0.000000 0.905575 -8.502599 3.258279 -8.778907 1.307326 7.269103 7.270120 -21.055303 39.152380 0.000000 -0.000000 0.000000 -5.873812 12.128633 -3.930670 5.669536 2.477973 -0.829750 1.968267 7.479493 -9.628695 12.215329 -1.971656 -4.029384 4.432962 -4.370672 -9.256197 -2.618679 6.769968 -17.732789 2.672423 -8.133979 -6.404684 7.705206 -5.911700 7.543369 -25.263108 20.029998 27.383722 4.192004 0.644782 -15.199664 -16.338865 17.871592 -24.975054 -8.451615 -11.424387 5.052956 4.547266 -22.112264 39.549224 
1.101673 -0.119252 0.997311 -72.118630 12.508210 109.959042 6.374181 14.304088 -34.775780 -0.369784 29.223532 11.765941 10.982698 40.656318 -18.566043 0.000000 -0.000000 0.000000 2.935070 -7.342089 3.140646 -8.043908 2.125619 8.464070 8.074677 -21.095478 34.392187 0.000000 -0.000000 0.000000 -6.860877 12.176515 -4.116850 4.855272 2.424270 -3.495977 2.418646 7.311663 -8.537036 11.427744 -1.632761 -4.040161 4.983815 -4.109349 -10.209691 0.470276 7.255785 -18.614935 5.631166 -8.226594 -8.884242 7.311959 -6.118658 8.622175 -21.352626 20.480157 31.379143 0.905512 0.660344 -15.842976 -21.064472 18.252811 -29.469761 -7.260187 -10.069648 4.025851 3.603834 -20.521083 40.016642 
1.111787 -0.109566 0.993033 -73.976245 12.555675 111.215846 6.845882 15.776028 -37.464556 -0.936392 30.861005 13.359967 10.417760 40.568590 -18.952563 0.000000 -0.000000 0.000000 5.821017 -6.085615 3.320431 -7.772290 2.729987 8.838108 9.531667 -21.013816 27.218218 0.000000 -0.000000 0.000000 -7.839695 11.892430 -4.508616 4.195899 1.841243 -4.816982 2.501903 6.953208 -8.725398 10.407859 -1.325448 -3.764519 5.683082 -3.930982 -11.326504 3.543936 7.694959 -19.705648 7.822855 -9.762277 -10.006248 7.650423 -6.103283 8.435903 -18.798591 20.534426 33.798219 -2.469855 -0.224648 -17.428957 -24.016327 20.088984 -31.694628 -7.359817 -9.295406 2.334600 3.094032 -19.093619 36.860720 
